<svg aria-hidden="true" style="position: absolute; width: 0; height: 0; overflow: hidden;" version="1.1" xmlns="http://www.w3.org/2000/svg" xmlns:xlink="http://www.w3.org/1999/xlink">
<defs>

<!-- main logo -->
<symbol id="icon-mainLogo" viewBox="0 0 32 32">
    <path d="M11.1 17.981c1.1 0 1.991-0.891 1.991-1.991s-0.891-1.991-1.991-1.991-1.991 0.891-1.991 1.991c0 1.099 0.891 1.991 1.991 1.991z"></path>
    <path d="M21.061 17.981c1.1 0 1.991-0.891 1.991-1.991s-0.891-1.991-1.991-1.991-1.991 0.891-1.991 1.991c0 1.099 0.891 1.991 1.991 1.991z"></path>
    <path d="M27.326 0h4.704l-6.181 10.708-3.364-1.952 4.841-8.756z"></path>
    <path d="M4.704 32h-4.704l6.181-10.701 3.208 1.991-4.684 8.711z"></path>
    <path d="M18.777 7.156h-9.954c-2.303 0.025-4.505 0.95-6.135 2.577s-2.56 3.827-2.589 6.13 0.842 4.526 2.43 6.195c1.588 1.668 3.765 2.65 6.067 2.735l2.297-3.975h-2.069c-1.284 0-2.515-0.51-3.423-1.418s-1.418-2.139-1.418-3.422 0.51-2.515 1.418-3.422c0.908-0.908 2.139-1.418 3.423-1.418h7.658l2.297-3.981zM15.491 20.817h7.846c1.284 0 2.515-0.51 3.423-1.418s1.418-2.139 1.418-3.422-0.51-2.515-1.418-3.422c-0.908-0.908-2.139-1.418-3.423-1.418h-2.258l2.297-3.981c2.34 0.005 4.582 0.94 6.233 2.598s2.575 3.904 2.57 6.243c-0.005 2.34-0.94 4.581-2.598 6.232s-3.904 2.575-6.244 2.57h-10.143l2.297-3.981z"></path>
</symbol>

<!-- userCreateProfile -->
<symbol id="icon-userCreateProfile" viewBox="0 0 30 32">
    <path d="M15.238 16c4.208 0 7.619-3.411 7.619-7.619s-3.411-7.619-7.619-7.619c-4.208 0-7.619 3.411-7.619 7.619s3.411 7.619 7.619 7.619z"></path>
    <path d="M20.372 18.54h-10.268c-1.669 0.002-3.269 0.666-4.449 1.846s-1.844 2.78-1.846 4.449v1.832c0 2.525 2.047 4.571 4.571 4.571h13.714c2.525 0 4.571-2.047 4.571-4.571v-1.832c-0.002-1.669-0.666-3.269-1.846-4.449s-2.78-1.844-4.449-1.846z"></path>
</symbol>




</defs>
</svg>