<svg width="600" height="597" viewBox="0 0 600 597" fill="none" xmlns="http://www.w3.org/2000/svg">
<path d="M207.076 335.456C227.589 335.456 244.219 318.828 244.219 298.318C244.219 277.807 227.589 261.18 207.076 261.18C186.563 261.18 169.934 277.807 169.934 298.318C169.934 318.828 186.563 335.456 207.076 335.456Z" fill="url(#paint0_linear_51_175)"/>
<path d="M392.91 335.456C413.423 335.456 430.053 318.828 430.053 298.318C430.053 277.807 413.423 261.18 392.91 261.18C372.397 261.18 355.768 277.807 355.768 298.318C355.768 318.828 372.397 335.456 392.91 335.456Z" fill="url(#paint1_linear_51_175)"/>
<path d="M509.8 0H597.558L482.246 199.769L419.492 163.359L509.8 0Z" fill="url(#paint2_linear_51_175)"/>
<path d="M87.7584 597H0L115.312 397.353L175.153 434.491L87.7584 597Z" fill="url(#paint3_linear_51_175)"/>
<path fill-rule="evenodd" clip-rule="evenodd" d="M350.306 133.503H164.593C121.624 133.975 80.5436 151.231 50.1288 181.583C19.714 211.936 2.37706 252.978 1.82233 295.941C1.26759 338.904 17.539 380.38 47.16 411.508C76.781 442.635 117.402 460.946 160.345 462.527L203.192 388.372H164.593C140.642 388.372 117.672 378.858 100.736 361.925C83.8004 344.991 74.2859 322.023 74.2859 298.075C74.2859 274.127 83.8004 251.16 100.736 234.226C117.672 217.292 140.642 207.779 164.593 207.779H307.459L350.306 133.503ZM289.009 388.372H435.394C459.345 388.372 482.315 378.858 499.251 361.925C516.187 344.991 525.701 322.023 525.701 298.075C525.701 274.127 516.187 251.16 499.251 234.226C482.315 217.292 459.345 207.779 435.394 207.779H393.275L436.122 133.503C479.775 133.599 521.601 151.031 552.4 181.963C583.199 212.894 600.447 254.792 600.351 298.439C600.254 342.087 582.82 383.908 551.885 414.703C520.95 445.498 479.047 462.744 435.394 462.648H246.161L289.009 388.372Z" fill="url(#paint4_linear_51_175)"/>
<defs>
<linearGradient id="paint0_linear_51_175" x1="205.62" y1="298.682" x2="296.532" y2="271.975" gradientUnits="userSpaceOnUse">
<stop stop-color="#2C98F0"/>
<stop offset="1" stop-color="#2CC1F0"/>
</linearGradient>
<linearGradient id="paint1_linear_51_175" x1="391.454" y1="298.682" x2="482.245" y2="271.975" gradientUnits="userSpaceOnUse">
<stop stop-color="#2C98F0"/>
<stop offset="1" stop-color="#2CC1F0"/>
</linearGradient>
<linearGradient id="paint2_linear_51_175" x1="465.981" y1="51.0951" x2="547.664" y2="109.482" gradientUnits="userSpaceOnUse">
<stop stop-color="#2C98F0"/>
<stop offset="1" stop-color="#2CC1F0"/>
</linearGradient>
<linearGradient id="paint3_linear_51_175" x1="130.97" y1="546.633" x2="49.166" y2="488.246" gradientUnits="userSpaceOnUse">
<stop stop-color="#2C98F0"/>
<stop offset="1" stop-color="#2CC1F0"/>
</linearGradient>
<linearGradient id="paint4_linear_51_175" x1="-11.409" y1="130.833" x2="607.114" y2="463.56" gradientUnits="userSpaceOnUse">
<stop stop-color="#2C98F0"/>
<stop offset="1" stop-color="#2CC1F0"/>
</linearGradient>
</defs>
</svg>
